<svg xmlns="http://www.w3.org/2000/svg" viewBox="0 0 1200 2400" width="1200" height="2400">
  <defs>
    <linearGradient id="grad1" x1="0%" y1="0%" x2="100%" y2="0%">
      <stop offset="0%" style="stop-color:#6366F1"/>
      <stop offset="100%" style="stop-color:#06B6D4"/>
    </linearGradient>
    <linearGradient id="grad2" x1="0%" y1="0%" x2="100%" y2="100%">
      <stop offset="0%" style="stop-color:#6366F1"/>
      <stop offset="100%" style="stop-color:#06B6D4"/>
    </linearGradient>
    <linearGradient id="gradVert" x1="0%" y1="0%" x2="0%" y2="100%">
      <stop offset="0%" style="stop-color:#6366F1"/>
      <stop offset="100%" style="stop-color:#06B6D4"/>
    </linearGradient>
  </defs>

  <!-- Background -->
  <rect width="1200" height="2400" fill="#ffffff"/>

  <!-- ==================== NAV ==================== -->
  <rect width="1200" height="64" fill="#ffffff" fill-opacity="0.9"/>
  <text x="80" y="42" font-family="'Helvetica Neue', Helvetica, Arial, sans-serif" font-size="22" font-weight="800" fill="url(#grad1)">JB</text>

  <!-- Pill nav links -->
  <rect x="560" y="18" width="70" height="30" rx="15" fill="#F3F4F6"/>
  <text x="576" y="38" font-family="'Helvetica Neue', Helvetica, Arial, sans-serif" font-size="13" font-weight="500" fill="#4B5563">About</text>
  <rect x="642" y="18" width="100" height="30" rx="15" fill="#F3F4F6"/>
  <text x="656" y="38" font-family="'Helvetica Neue', Helvetica, Arial, sans-serif" font-size="13" font-weight="500" fill="#4B5563">Experience</text>
  <rect x="754" y="18" width="65" height="30" rx="15" fill="#F3F4F6"/>
  <text x="768" y="38" font-family="'Helvetica Neue', Helvetica, Arial, sans-serif" font-size="13" font-weight="500" fill="#4B5563">Skills</text>
  <rect x="831" y="18" width="80" height="30" rx="15" fill="#F3F4F6"/>
  <text x="842" y="38" font-family="'Helvetica Neue', Helvetica, Arial, sans-serif" font-size="13" font-weight="500" fill="#4B5563">Projects</text>
  <rect x="923" y="18" width="80" height="30" rx="15" fill="#F3F4F6"/>
  <text x="936" y="38" font-family="'Helvetica Neue', Helvetica, Arial, sans-serif" font-size="13" font-weight="500" fill="#4B5563">Contact</text>

  <!-- Theme toggle -->
  <circle cx="1060" cy="33" r="16" fill="#F3F4F6"/>
  <circle cx="1060" cy="33" r="7" fill="none" stroke="#4B5563" stroke-width="1.5"/>

  <line x1="0" y1="64" x2="1200" y2="64" stroke="#F3F4F6" stroke-width="1"/>

  <!-- ==================== HERO ==================== -->
  <text x="80" y="200" font-family="'Helvetica Neue', Helvetica, Arial, sans-serif" font-size="18" font-weight="500" fill="#6366F1">Hello, I'm</text>

  <text x="80" y="275" font-family="'Helvetica Neue', Helvetica, Arial, sans-serif" font-size="64" font-weight="800" fill="url(#grad1)">Justin Bricker</text>

  <text x="80" y="320" font-family="'Helvetica Neue', Helvetica, Arial, sans-serif" font-size="22" font-weight="400" fill="#4B5563">Data Engineer · Computational Scientist · AI Enthusiast</text>

  <!-- Location pill -->
  <rect x="80" y="340" width="150" height="30" rx="15" fill="#F3F4F6"/>
  <text x="105" y="360" font-family="'Helvetica Neue', Helvetica, Arial, sans-serif" font-size="13" fill="#4B5563">Nashville, TN</text>

  <!-- Social icon circles -->
  <circle cx="100" cy="420" r="22" fill="url(#grad2)"/>
  <text x="92" y="426" font-family="'Helvetica Neue', Helvetica, Arial, sans-serif" font-size="13" font-weight="bold" fill="#ffffff">GH</text>
  <circle cx="156" cy="420" r="22" fill="url(#grad2)"/>
  <text x="150" y="426" font-family="'Helvetica Neue', Helvetica, Arial, sans-serif" font-size="13" font-weight="bold" fill="#ffffff">LI</text>
  <circle cx="212" cy="420" r="22" fill="url(#grad2)"/>
  <text x="207" y="426" font-family="'Helvetica Neue', Helvetica, Arial, sans-serif" font-size="15" font-weight="bold" fill="#ffffff">@</text>

  <!-- CTA Button -->
  <rect x="80" y="470" width="200" height="50" rx="12" fill="url(#grad1)"/>
  <text x="120" y="501" font-family="'Helvetica Neue', Helvetica, Arial, sans-serif" font-size="16" font-weight="600" fill="#ffffff">View My Work</text>

  <!-- ==================== ABOUT ==================== -->
  <rect width="1200" height="280" y="560" fill="#F9FAFB"/>
  <text x="80" y="620" font-family="'Helvetica Neue', Helvetica, Arial, sans-serif" font-size="28" font-weight="700" fill="#111827">About</text>
  <rect x="80" y="632" width="60" height="4" rx="2" fill="url(#grad1)"/>

  <rect x="80" y="660" width="900" height="10" rx="3" fill="#E5E7EB"/>
  <rect x="80" y="680" width="820" height="10" rx="3" fill="#E5E7EB"/>
  <rect x="80" y="700" width="860" height="10" rx="3" fill="#E5E7EB"/>
  <rect x="80" y="720" width="700" height="10" rx="3" fill="#E5E7EB"/>
  <rect x="80" y="750" width="880" height="10" rx="3" fill="#E5E7EB"/>
  <rect x="80" y="770" width="780" height="10" rx="3" fill="#E5E7EB"/>
  <rect x="80" y="790" width="600" height="10" rx="3" fill="#E5E7EB"/>

  <!-- ==================== EXPERIENCE ==================== -->
  <text x="80" y="905" font-family="'Helvetica Neue', Helvetica, Arial, sans-serif" font-size="28" font-weight="700" fill="#111827">Experience</text>
  <rect x="80" y="917" width="85" height="4" rx="2" fill="url(#grad1)"/>

  <!-- Card 1 -->
  <rect x="80" y="945" width="1040" height="120" rx="16" fill="#ffffff" stroke="#F3F4F6" stroke-width="1.5"/>
  <rect x="80" y="945" width="5" height="120" rx="2" fill="url(#gradVert)"/>
  <text x="110" y="980" font-family="'Helvetica Neue', Helvetica, Arial, sans-serif" font-size="18" font-weight="700" fill="#111827">Senior Data Engineer</text>
  <text x="110" y="1003" font-family="'Helvetica Neue', Helvetica, Arial, sans-serif" font-size="15" fill="#6366F1" font-weight="500">Company Name</text>
  <text x="300" y="1003" font-family="'Helvetica Neue', Helvetica, Arial, sans-serif" font-size="14" fill="#9CA3AF">2022 — Present</text>
  <rect x="110" y="1018" width="700" height="8" rx="3" fill="#F3F4F6"/>
  <rect x="110" y="1034" width="600" height="8" rx="3" fill="#F3F4F6"/>

  <!-- Card 2 -->
  <rect x="80" y="1080" width="1040" height="120" rx="16" fill="#ffffff" stroke="#F3F4F6" stroke-width="1.5"/>
  <rect x="80" y="1080" width="5" height="120" rx="2" fill="url(#gradVert)"/>
  <text x="110" y="1115" font-family="'Helvetica Neue', Helvetica, Arial, sans-serif" font-size="18" font-weight="700" fill="#111827">Data Engineer</text>
  <text x="110" y="1138" font-family="'Helvetica Neue', Helvetica, Arial, sans-serif" font-size="15" fill="#6366F1" font-weight="500">Company Name</text>
  <text x="300" y="1138" font-family="'Helvetica Neue', Helvetica, Arial, sans-serif" font-size="14" fill="#9CA3AF">2019 — 2022</text>
  <rect x="110" y="1153" width="680" height="8" rx="3" fill="#F3F4F6"/>
  <rect x="110" y="1169" width="580" height="8" rx="3" fill="#F3F4F6"/>

  <!-- Card 3 -->
  <rect x="80" y="1215" width="1040" height="120" rx="16" fill="#ffffff" stroke="#F3F4F6" stroke-width="1.5"/>
  <rect x="80" y="1215" width="5" height="120" rx="2" fill="url(#gradVert)"/>
  <text x="110" y="1250" font-family="'Helvetica Neue', Helvetica, Arial, sans-serif" font-size="18" font-weight="700" fill="#111827">Computational Scientist</text>
  <text x="110" y="1273" font-family="'Helvetica Neue', Helvetica, Arial, sans-serif" font-size="15" fill="#6366F1" font-weight="500">Lab Name</text>
  <text x="260" y="1273" font-family="'Helvetica Neue', Helvetica, Arial, sans-serif" font-size="14" fill="#9CA3AF">2016 — 2019</text>
  <rect x="110" y="1288" width="720" height="8" rx="3" fill="#F3F4F6"/>
  <rect x="110" y="1304" width="620" height="8" rx="3" fill="#F3F4F6"/>

  <!-- ==================== SKILLS ==================== -->
  <rect width="1200" height="320" y="1370" fill="#F9FAFB"/>
  <text x="80" y="1420" font-family="'Helvetica Neue', Helvetica, Arial, sans-serif" font-size="28" font-weight="700" fill="#111827">Skills</text>
  <rect x="80" y="1432" width="50" height="4" rx="2" fill="url(#grad1)"/>

  <!-- Skill cards with pills -->
  <!-- Card 1: Data Engineering -->
  <rect x="80" y="1455" width="340" height="100" rx="16" fill="#ffffff" stroke="#F3F4F6" stroke-width="1.5"/>
  <text x="104" y="1485" font-family="'Helvetica Neue', Helvetica, Arial, sans-serif" font-size="13" font-weight="700" fill="#111827">DATA ENGINEERING</text>
  <!-- Pills -->
  <rect x="104" y="1500" width="60" height="24" rx="12" fill="#EEF2FF"/>
  <text x="117" y="1516" font-family="'Helvetica Neue', Helvetica, Arial, sans-serif" font-size="11" fill="#6366F1">Spark</text>
  <rect x="172" y="1500" width="68" height="24" rx="12" fill="#EEF2FF"/>
  <text x="185" y="1516" font-family="'Helvetica Neue', Helvetica, Arial, sans-serif" font-size="11" fill="#6366F1">Airflow</text>
  <rect x="248" y="1500" width="48" height="24" rx="12" fill="#EEF2FF"/>
  <text x="260" y="1516" font-family="'Helvetica Neue', Helvetica, Arial, sans-serif" font-size="11" fill="#6366F1">dbt</text>
  <rect x="304" y="1500" width="60" height="24" rx="12" fill="#EEF2FF"/>
  <text x="317" y="1516" font-family="'Helvetica Neue', Helvetica, Arial, sans-serif" font-size="11" fill="#6366F1">Kafka</text>
  <rect x="104" y="1530" width="72" height="24" rx="12" fill="#EEF2FF"/>
  <text x="114" y="1546" font-family="'Helvetica Neue', Helvetica, Arial, sans-serif" font-size="11" fill="#6366F1">ETL/ELT</text>

  <!-- Card 2: Cloud -->
  <rect x="440" y="1455" width="340" height="100" rx="16" fill="#ffffff" stroke="#F3F4F6" stroke-width="1.5"/>
  <text x="464" y="1485" font-family="'Helvetica Neue', Helvetica, Arial, sans-serif" font-size="13" font-weight="700" fill="#111827">CLOUD &amp; INFRA</text>
  <rect x="464" y="1500" width="55" height="24" rx="12" fill="#ECFDF5"/>
  <text x="477" y="1516" font-family="'Helvetica Neue', Helvetica, Arial, sans-serif" font-size="11" fill="#059669">AWS</text>
  <rect x="527" y="1500" width="55" height="24" rx="12" fill="#ECFDF5"/>
  <text x="540" y="1516" font-family="'Helvetica Neue', Helvetica, Arial, sans-serif" font-size="11" fill="#059669">GCP</text>
  <rect x="590" y="1500" width="82" height="24" rx="12" fill="#ECFDF5"/>
  <text x="600" y="1516" font-family="'Helvetica Neue', Helvetica, Arial, sans-serif" font-size="11" fill="#059669">Terraform</text>
  <rect x="680" y="1500" width="68" height="24" rx="12" fill="#ECFDF5"/>
  <text x="693" y="1516" font-family="'Helvetica Neue', Helvetica, Arial, sans-serif" font-size="11" fill="#059669">Docker</text>
  <rect x="464" y="1530" width="50" height="24" rx="12" fill="#ECFDF5"/>
  <text x="477" y="1546" font-family="'Helvetica Neue', Helvetica, Arial, sans-serif" font-size="11" fill="#059669">K8s</text>

  <!-- Card 3: AI/ML -->
  <rect x="800" y="1455" width="320" height="100" rx="16" fill="#ffffff" stroke="#F3F4F6" stroke-width="1.5"/>
  <text x="824" y="1485" font-family="'Helvetica Neue', Helvetica, Arial, sans-serif" font-size="13" font-weight="700" fill="#111827">AI / ML</text>
  <rect x="824" y="1500" width="72" height="24" rx="12" fill="#FEF3C7"/>
  <text x="837" y="1516" font-family="'Helvetica Neue', Helvetica, Arial, sans-serif" font-size="11" fill="#D97706">PyTorch</text>
  <rect x="904" y="1500" width="92" height="24" rx="12" fill="#FEF3C7"/>
  <text x="914" y="1516" font-family="'Helvetica Neue', Helvetica, Arial, sans-serif" font-size="11" fill="#D97706">TensorFlow</text>
  <rect x="1004" y="1500" width="55" height="24" rx="12" fill="#FEF3C7"/>
  <text x="1017" y="1516" font-family="'Helvetica Neue', Helvetica, Arial, sans-serif" font-size="11" fill="#D97706">LLMs</text>
  <rect x="824" y="1530" width="52" height="24" rx="12" fill="#FEF3C7"/>
  <text x="837" y="1546" font-family="'Helvetica Neue', Helvetica, Arial, sans-serif" font-size="11" fill="#D97706">NLP</text>
  <rect x="884" y="1530" width="42" height="24" rx="12" fill="#FEF3C7"/>
  <text x="897" y="1546" font-family="'Helvetica Neue', Helvetica, Arial, sans-serif" font-size="11" fill="#D97706">CV</text>

  <!-- Languages row -->
  <rect x="80" y="1570" width="340" height="80" rx="16" fill="#ffffff" stroke="#F3F4F6" stroke-width="1.5"/>
  <text x="104" y="1600" font-family="'Helvetica Neue', Helvetica, Arial, sans-serif" font-size="13" font-weight="700" fill="#111827">LANGUAGES</text>
  <rect x="104" y="1615" width="68" height="24" rx="12" fill="#F3E8FF"/>
  <text x="117" y="1631" font-family="'Helvetica Neue', Helvetica, Arial, sans-serif" font-size="11" fill="#7C3AED">Python</text>
  <rect x="180" y="1615" width="52" height="24" rx="12" fill="#F3E8FF"/>
  <text x="193" y="1631" font-family="'Helvetica Neue', Helvetica, Arial, sans-serif" font-size="11" fill="#7C3AED">SQL</text>
  <rect x="240" y="1615" width="60" height="24" rx="12" fill="#F3E8FF"/>
  <text x="253" y="1631" font-family="'Helvetica Neue', Helvetica, Arial, sans-serif" font-size="11" fill="#7C3AED">Scala</text>
  <rect x="308" y="1615" width="48" height="24" rx="12" fill="#F3E8FF"/>
  <text x="321" y="1631" font-family="'Helvetica Neue', Helvetica, Arial, sans-serif" font-size="11" fill="#7C3AED">Go</text>

  <!-- ==================== PROJECTS ==================== -->
  <text x="80" y="1730" font-family="'Helvetica Neue', Helvetica, Arial, sans-serif" font-size="28" font-weight="700" fill="#111827">Projects</text>
  <rect x="80" y="1742" width="65" height="4" rx="2" fill="url(#grad1)"/>

  <!-- Project Card 1 -->
  <rect x="80" y="1770" width="500" height="220" rx="16" fill="#ffffff" stroke="#F3F4F6" stroke-width="1.5"/>
  <rect x="80" y="1770" width="500" height="5" rx="3" fill="url(#grad1)"/>
  <text x="104" y="1815" font-family="'Helvetica Neue', Helvetica, Arial, sans-serif" font-size="18" font-weight="700" fill="#111827">Real-Time Data Pipeline</text>
  <rect x="104" y="1830" width="440" height="8" rx="3" fill="#F3F4F6"/>
  <rect x="104" y="1846" width="380" height="8" rx="3" fill="#F3F4F6"/>
  <rect x="104" y="1862" width="400" height="8" rx="3" fill="#F3F4F6"/>
  <!-- Tags -->
  <rect x="104" y="1940" width="58" height="22" rx="11" fill="#EEF2FF"/>
  <text x="115" y="1955" font-family="'Helvetica Neue', Helvetica, Arial, sans-serif" font-size="10" fill="#6366F1">Kafka</text>
  <rect x="170" y="1940" width="55" height="22" rx="11" fill="#EEF2FF"/>
  <text x="181" y="1955" font-family="'Helvetica Neue', Helvetica, Arial, sans-serif" font-size="10" fill="#6366F1">Spark</text>
  <rect x="233" y="1940" width="78" height="22" rx="11" fill="#EEF2FF"/>
  <text x="244" y="1955" font-family="'Helvetica Neue', Helvetica, Arial, sans-serif" font-size="10" fill="#6366F1">Delta Lake</text>

  <!-- Project Card 2 -->
  <rect x="600" y="1770" width="500" height="220" rx="16" fill="#ffffff" stroke="#F3F4F6" stroke-width="1.5"/>
  <rect x="600" y="1770" width="500" height="5" rx="3" fill="url(#grad1)"/>
  <text x="624" y="1815" font-family="'Helvetica Neue', Helvetica, Arial, sans-serif" font-size="18" font-weight="700" fill="#111827">ML Model Serving Platform</text>
  <rect x="624" y="1830" width="440" height="8" rx="3" fill="#F3F4F6"/>
  <rect x="624" y="1846" width="400" height="8" rx="3" fill="#F3F4F6"/>
  <rect x="624" y="1862" width="360" height="8" rx="3" fill="#F3F4F6"/>
  <rect x="624" y="1940" width="65" height="22" rx="11" fill="#EEF2FF"/>
  <text x="635" y="1955" font-family="'Helvetica Neue', Helvetica, Arial, sans-serif" font-size="10" fill="#6366F1">FastAPI</text>
  <rect x="697" y="1940" width="62" height="22" rx="11" fill="#EEF2FF"/>
  <text x="708" y="1955" font-family="'Helvetica Neue', Helvetica, Arial, sans-serif" font-size="10" fill="#6366F1">Docker</text>
  <rect x="767" y="1940" width="42" height="22" rx="11" fill="#EEF2FF"/>
  <text x="778" y="1955" font-family="'Helvetica Neue', Helvetica, Arial, sans-serif" font-size="10" fill="#6366F1">K8s</text>

  <!-- Project Card 3 -->
  <rect x="80" y="2010" width="500" height="220" rx="16" fill="#ffffff" stroke="#F3F4F6" stroke-width="1.5"/>
  <rect x="80" y="2010" width="500" height="5" rx="3" fill="url(#grad1)"/>
  <text x="104" y="2055" font-family="'Helvetica Neue', Helvetica, Arial, sans-serif" font-size="18" font-weight="700" fill="#111827">Scientific Simulation Engine</text>
  <rect x="104" y="2070" width="430" height="8" rx="3" fill="#F3F4F6"/>
  <rect x="104" y="2086" width="390" height="8" rx="3" fill="#F3F4F6"/>
  <rect x="104" y="2102" width="410" height="8" rx="3" fill="#F3F4F6"/>
  <rect x="104" y="2180" width="62" height="22" rx="11" fill="#EEF2FF"/>
  <text x="115" y="2195" font-family="'Helvetica Neue', Helvetica, Arial, sans-serif" font-size="10" fill="#6366F1">Python</text>
  <rect x="174" y="2180" width="55" height="22" rx="11" fill="#EEF2FF"/>
  <text x="185" y="2195" font-family="'Helvetica Neue', Helvetica, Arial, sans-serif" font-size="10" fill="#6366F1">CUDA</text>
  <rect x="237" y="2180" width="48" height="22" rx="11" fill="#EEF2FF"/>
  <text x="248" y="2195" font-family="'Helvetica Neue', Helvetica, Arial, sans-serif" font-size="10" fill="#6366F1">HPC</text>

  <!-- ==================== CONTACT (gradient background) ==================== -->
  <rect x="0" y="2260" width="1200" height="140" fill="url(#grad1)"/>
  <text x="600" y="2315" font-family="'Helvetica Neue', Helvetica, Arial, sans-serif" font-size="28" font-weight="700" fill="#ffffff" text-anchor="middle">Let's Connect</text>
  <rect x="500" y="2340" width="200" height="44" rx="22" fill="#ffffff"/>
  <text x="555" y="2367" font-family="'Helvetica Neue', Helvetica, Arial, sans-serif" font-size="15" font-weight="600" fill="#6366F1">Get in Touch</text>
</svg>
